<?xml version="1.0" encoding="UTF-8"?>
<svg xmlns="http://www.w3.org/2000/svg" width="50" height="50" viewBox="0 0 50 50">
    <g fill="#FFF" fill-rule="nonzero">
        <path d="M49.207 8.065c.004-3.094-1.99-5.85-4.962-6.86-2.974-1.012-6.272-.057-8.213 2.378-9.778-5.042-21.775-3.06-29.34 4.849-7.566 7.908-8.846 19.803-3.13 29.093 5.714 9.29 17.023 13.697 27.658 10.779C41.855 45.386 49.21 35.857 49.207 25a23.549 23.549 0 0 0-2.282-10.157c1.252-2.28 2.282-4.762 2.282-6.778zm-7.38-5.646c3.168.004 5.736 2.53 5.74 5.646 0 3.634-4.123 9.435-5.74 11.575-1.62-2.14-5.742-7.937-5.742-11.575.004-3.117 2.572-5.642 5.741-5.646zM1.64 25c.002-1.01.073-2.02.212-3.022l5.32 1.382c.154.041.317.036.468-.015l4.795-1.57h3.967v4.031c0 .446.368.807.82.807h2.69l1.367 4.032-1.553 4.584a.795.795 0 0 0 .112.726c.154.21.402.335.665.335h3.782l-1.279 3.778a.775.775 0 0 0 0 .51l1.28 3.777h-2.143a.813.813 0 0 0-.82.806v2.186C10.033 45.73 1.655 36.219 1.64 25zm22.964 22.58c-.552 0-1.099-.025-1.64-.063v-1.55h2.46c.263 0 .51-.124.665-.334a.795.795 0 0 0 .112-.727l-1.553-4.583 1.553-4.584a.795.795 0 0 0-.112-.726.825.825 0 0 0-.665-.336H21.64l1.28-3.777a.775.775 0 0 0 0-.51l-1.64-4.838a.82.82 0 0 0-.778-.552h-2.46v-4.032a.813.813 0 0 0-.82-.807h-4.921a.833.833 0 0 0-.26.042L7.355 21.74l-5.23-1.36C4.32 10.137 13.38 2.712 24.023 2.435l1.357 4.018-1.553 4.583a.775.775 0 0 0 0 .51l1.553 4.584-1.553 4.584a.794.794 0 0 0-.043.255v4.838c0 .26.127.503.341.654a.832.832 0 0 0 .739.111l4.661-1.527 4.1 1.344v4.257c0 .446.368.807.821.807h4.1v3.225c0 .446.368.807.82.807h5.568c-3.967 7.431-11.794 12.09-20.33 12.097zM47.567 25a22.133 22.133 0 0 1-1.849 8.871h-5.532v-3.226a.813.813 0 0 0-.82-.806h-4.1v-4.033a.808.808 0 0 0-.562-.764l-4.92-1.613a.826.826 0 0 0-.519 0l-3.841 1.258v-3.589l1.597-4.714a.775.775 0 0 0 0-.51l-1.553-4.584 1.553-4.584a.775.775 0 0 0 0-.51l-1.27-3.74a23.234 23.234 0 0 1 9.413 2.5 7.099 7.099 0 0 0-.719 3.109c0 5.062 6.466 13.064 6.74 13.407a.825.825 0 0 0 .641.303c.25 0 .485-.112.64-.303a51.092 51.092 0 0 0 3.445-4.885A21.966 21.966 0 0 1 47.567 25z"/>
        <path d="M41.826 12.097c2.265 0 4.1-1.806 4.1-4.032 0-2.227-1.835-4.033-4.1-4.033-2.265 0-4.1 1.806-4.1 4.033.002 2.225 1.837 4.03 4.1 4.032zm0-6.452c1.359 0 2.46 1.083 2.46 2.42 0 1.336-1.101 2.419-2.46 2.419s-2.46-1.083-2.46-2.42c0-1.336 1.101-2.419 2.46-2.419zM10.662 25c-3.17.004-5.737 2.53-5.741 5.645 0 3.46 4.632 8.115 5.16 8.635a.83.83 0 0 0 1.16 0c.53-.52 5.161-5.175 5.161-8.635-.004-3.116-2.572-5.641-5.74-5.645zm0 12.541c-1.52-1.629-4.101-4.826-4.101-6.896 0-2.227 1.836-4.032 4.1-4.032 2.265 0 4.101 1.805 4.101 4.032 0 2.07-2.58 5.267-4.1 6.896z"/>
        <path d="M10.662 28.226c-1.36 0-2.46 1.083-2.46 2.42 0 1.335 1.1 2.419 2.46 2.419 1.358 0 2.46-1.084 2.46-2.42 0-1.336-1.102-2.42-2.46-2.42zm0 3.226a.813.813 0 0 1-.82-.807c0-.445.367-.806.82-.806.453 0 .82.36.82.806a.813.813 0 0 1-.82.807z"/>
    </g>
</svg>
