<?xml version="1.0" encoding="UTF-8"?>
<svg xmlns="http://www.w3.org/2000/svg" width="50" height="50" viewBox="0 0 50 50">
    <g fill="#FFF" fill-rule="nonzero">
        <path d="M49.307 29.05c-.701-.979-1.868-1.637-3.046-1.717-.962-.065-1.833.26-2.453.917-.136.143-.283.302-.438.47-.686-.627-1.585-1.032-2.49-1.093-.963-.065-1.834.26-2.454.916-1.35 1.428-3.738 4.219-5.615 6.44a3.883 3.883 0 0 0-.783-.354c-.897-.386-13.26-5.666-18.74-5.666-8.853 0-12.92 4.758-13.09 4.96a.733.733 0 0 0 1.127.942c.01-.011.96-1.124 2.9-2.22 1.789-1.01 4.813-2.214 9.062-2.214 5.265 0 18.064 5.505 18.192 5.56.024.01.048.02.073.027.611.19 1.112.608 1.409 1.175.297.567.356 1.216.165 1.828a2.416 2.416 0 0 1-1.105 1.37c-.586.332-1.278.373-1.921.197l-8.007-2.205a.734.734 0 0 0-.39 1.415L29.699 42a3.901 3.901 0 0 0 4.293-1.457 3.888 3.888 0 0 0 .708-2.063l2.147-.226a.734.734 0 0 0 .487-.26c.053-.064 5.32-6.386 7.54-8.737.924-.977 2.572-.284 3.24.647 1.024 1.432-.25 2.996-.665 3.441-2.038 2.188-5.777 6.694-6.449 7.506L25.786 48.46l-14.562-6.132a.734.734 0 0 0-.285-.057H.763a.734.734 0 0 0 0 1.468H10.79l14.736 6.204a.732.732 0 0 0 .613-.02l15.656-7.827a.734.734 0 0 0 .237-.19c.043-.052 4.322-5.234 6.49-7.56 1.596-1.711 1.896-3.74.784-5.295zm-12.91 7.776l-1.911.201a3.92 3.92 0 0 0-.578-1.068c1.598-1.892 4.196-4.937 5.585-6.408.402-.425.922-.484 1.287-.46.575.04 1.165.31 1.609.721-2.202 2.486-5.2 6.066-5.991 7.014z"/>
        <path d="M41.467 14.873h-6.31V6.556a.734.734 0 1 0-1.469 0v9.05c0 .406.329.735.734.735h5.061L25.03 28.73 10.574 16.34h5.062a.734.734 0 0 0 .733-.734V1.467h17.32V3.18a.734.734 0 1 0 1.467 0V.734A.734.734 0 0 0 34.422 0H15.636a.734.734 0 0 0-.734.734v14.139H8.59c-.666 0-.985.857-.478 1.29l16.438 14.09a.74.74 0 0 0 .956 0l16.438-14.09c.506-.433.188-1.29-.478-1.29z"/>
        <path d="M30.245 4.912a.734.734 0 0 0-1.038 0l-9.394 9.393c-.452.452-.122 1.253.52 1.253a.73.73 0 0 0 .518-.215l9.393-9.394a.734.734 0 0 0 0-1.037zM28.943 10.959a2.302 2.302 0 0 0-2.3 2.3c0 1.267 1.032 2.299 2.3 2.299 1.268 0 2.3-1.032 2.3-2.3 0-1.268-1.032-2.3-2.3-2.3zm0 3.131a.833.833 0 0 1 0-1.663.833.833 0 0 1 0 1.663zM21.115 4.697a2.302 2.302 0 0 0-2.3 2.3c0 1.267 1.032 2.299 2.3 2.299 1.268 0 2.3-1.032 2.3-2.3 0-1.268-1.032-2.3-2.3-2.3zm0 3.13a.833.833 0 0 1 0-1.663.833.833 0 0 1 0 1.664z"/>
    </g>
</svg>
