<?xml version="1.0" encoding="UTF-8"?>
<svg xmlns="http://www.w3.org/2000/svg" width="50" height="50" viewBox="0 0 50 50">
    <g fill="#FFF" fill-rule="nonzero">
        <path d="M16.667 0c-6.904 0-12.5 5.596-12.5 12.5v9.167A5.84 5.84 0 0 0 10 27.5h.833v-1.667H10a4.172 4.172 0 0 1-4.167-4.166V12.5c0-5.983 4.85-10.833 10.834-10.833C22.65 1.667 27.5 6.517 27.5 12.5v9.167a4.172 4.172 0 0 1-4.167 4.166H22.5V27.5h.833a5.84 5.84 0 0 0 5.834-5.833V12.5c0-6.904-5.597-12.5-12.5-12.5zM6.867 39.274l.61-.959-1.408-.893-.609.96a8.307 8.307 0 0 0 .344 9.402V50h1.667v-2.5a.833.833 0 0 0-.183-.52 6.64 6.64 0 0 1-.42-7.706zM45.833 0H35a4.172 4.172 0 0 0-4.167 4.167V12.5A4.172 4.172 0 0 0 35 16.667h1.667V20a.833.833 0 0 0 1.422.59l3.923-3.923h3.821A4.172 4.172 0 0 0 50 12.5V4.167A4.172 4.172 0 0 0 45.833 0zm2.5 12.5a2.5 2.5 0 0 1-2.5 2.5h-4.166a.833.833 0 0 0-.59.244l-2.744 2.744v-2.155A.833.833 0 0 0 37.5 15H35a2.5 2.5 0 0 1-2.5-2.5V4.167a2.5 2.5 0 0 1 2.5-2.5h10.833a2.5 2.5 0 0 1 2.5 2.5V12.5z"/>
        <path d="M35 4.167h5.833v1.667H35zM42.5 4.167h3.333v1.667H42.5zM35 7.5h10.833v1.667H35zM35 10.833h5.833V12.5H35zM27.873 38.382l-.609-.96-1.407.893.609.96a6.637 6.637 0 0 1-.421 7.704.833.833 0 0 0-.183.521V50h1.667v-2.216a8.307 8.307 0 0 0 .344-9.402z"/>
        <path d="M49.167 28.333h-7.5a5.833 5.833 0 0 0-5.822 5.596l-2.512 4.522V35a5.84 5.84 0 0 0-5.833-5.833h-3.046l-.022-.018-.015.018H22.5c-.92 0-1.667-.746-1.667-1.667v-1.96A8.334 8.334 0 0 0 25 18.332v-6.666a8.35 8.35 0 0 0-1-3.955.833.833 0 0 0-1.083-.359L8.812 13.99a.833.833 0 0 0-.479.754v3.59a8.334 8.334 0 0 0 4.167 7.205V27.5c0 .92-.746 1.667-1.667 1.667h-5A5.84 5.84 0 0 0 0 35v15h1.667V35a4.172 4.172 0 0 1 4.166-4.167h2.652l7.504 10.485a.833.833 0 0 0 .667.349h.01c.263 0 .51-.124.667-.334l7.917-10.5h2.25A4.172 4.172 0 0 1 31.667 35v6.667a.833.833 0 0 0 1.561.404L37.157 35h4.777L33.81 50h1.896l8.128-15h.334A5.84 5.84 0 0 0 50 29.167a.833.833 0 0 0-.833-.834zM10 18.333v-3.06l12.867-6.055c.308.78.466 1.61.466 2.449v6.666a6.667 6.667 0 0 1-13.333 0zm6.684 21.094l-2.572-3.594h5.28l-2.708 3.594zm3.97-5.26h-7.737l-2.386-3.334h.302a3.333 3.333 0 0 0 3.334-3.333v-1.218a8.327 8.327 0 0 0 5 0V27.5a3.333 3.333 0 0 0 3.333 3.333h.667l-2.514 3.334zm23.513-.834h-6.584A4.173 4.173 0 0 1 41.667 30h6.583a4.173 4.173 0 0 1-4.083 3.333z"/>
    </g>
</svg>
